<?xml version="1.0" standalone="no"?>
<!DOCTYPE svg PUBLIC "-//W3C//DTD SVG 20010904//EN"
 "http://www.w3.org/TR/2001/REC-SVG-20010904/DTD/svg10.dtd">
<svg version="1.0" xmlns="http://www.w3.org/2000/svg"
 width="482.000000pt" height="482.000000pt" viewBox="0 0 482.000000 482.000000"
 preserveAspectRatio="xMidYMid meet">
<metadata>
Created by potrace 1.14, written by Peter Selinger 2001-2017
</metadata>
<g transform="translate(0.000000,482.000000) scale(0.100000,-0.100000)"
fill="#000000" stroke="none">
<path d="M4394 4578 c-3 -5 -14 -8 -25 -8 -41 0 -318 -136 -327 -161 -2 -5 -8
-9 -14 -9 -11 0 -227 -145 -243 -164 -5 -6 -28 -24 -50 -41 -51 -37 -202 -188
-240 -240 -17 -22 -36 -46 -43 -54 -7 -8 -20 -24 -29 -37 -15 -23 -19 -24
-112 -19 -53 3 -171 7 -263 10 -92 3 -225 7 -295 10 -71 3 -197 7 -281 10
l-153 5 -955 -954 c-525 -525 -954 -952 -954 -949 0 3 -8 -5 -19 -18 -10 -13
-51 -56 -90 -95 -39 -39 -71 -74 -71 -78 0 -12 1517 -1526 1529 -1526 6 0 105
94 220 210 116 115 207 210 204 210 -3 0 6 9 20 20 33 26 787 780 780 780 -3
0 5 8 18 19 13 10 210 203 437 429 l414 411 -6 178 c-4 98 -9 246 -11 329 -5
177 -14 409 -15 409 0 0 -2 75 -3 166 l-2 166 120 67 c120 66 319 190 411 256
94 67 226 210 262 283 74 150 35 351 -74 382 -37 11 -134 13 -140 3z m136 -80
c56 -35 66 -175 19 -273 -29 -62 -157 -192 -269 -274 -47 -34 -93 -69 -103
-77 -9 -8 -20 -14 -23 -14 -3 0 -25 -13 -49 -30 -24 -16 -46 -30 -50 -30 -3 0
-30 -16 -60 -35 -63 -40 -175 -98 -180 -93 -2 2 -5 34 -6 71 -1 37 -7 71 -13
76 -6 5 -77 11 -158 13 -82 1 -148 5 -148 8 0 7 46 74 74 109 73 92 258 248
356 302 14 8 27 17 30 21 3 4 55 37 115 74 241 147 394 196 465 152z"/>
</g>
</svg>
