<?xml version="1.0" standalone="no"?>
<!DOCTYPE svg PUBLIC "-//W3C//DTD SVG 20010904//EN"
 "http://www.w3.org/TR/2001/REC-SVG-20010904/DTD/svg10.dtd">
<svg version="1.0" xmlns="http://www.w3.org/2000/svg"
 width="140.000000pt" height="140.000000pt" viewBox="0 0 140.000000 140.000000"
 preserveAspectRatio="xMidYMid meet">
<metadata>
Created by potrace 1.14, written by Peter Selinger 2001-2017
</metadata>
<g transform="translate(0.000000,140.000000) scale(0.100000,-0.100000)"
fill="#000000" stroke="none">
<path d="M620 1285 c-124 -45 -304 -111 -400 -147 l-175 -64 -3 -361 -2 -361
82 -4 c46 -2 92 0 103 4 17 6 16 7 -7 7 -27 1 -27 1 -31 84 l-3 82 -2 -82 -2
-83 -63 0 -63 0 4 36 c3 24 8 34 18 30 7 -3 16 -1 19 4 4 6 -3 10 -14 10 -29
0 -27 20 2 21 l22 0 -22 9 c-13 5 -23 17 -24 27 0 10 -2 44 -4 76 -3 45 -1 57
11 57 7 0 14 5 14 10 0 6 -6 10 -13 10 -9 0 -14 16 -16 50 -1 35 2 50 11 50 8
0 9 3 3 8 -6 4 -12 19 -13 33 -2 26 16 41 66 53 12 3 31 8 41 12 18 4 20 -1
24 -53 2 -40 4 -27 5 40 1 68 6 99 15 102 6 2 48 15 92 30 44 14 67 22 50 19
-16 -3 -60 -14 -98 -26 -58 -17 -67 -23 -67 -44 0 -19 -6 -24 -25 -25 -30 -2
-32 -2 -68 -17 -38 -16 -37 -17 -37 24 0 26 5 37 18 41 14 3 18 11 14 29 -2
13 -8 24 -12 24 -5 0 -8 15 -7 34 2 34 3 35 102 71 141 52 264 97 377 139 55
20 104 33 114 29 12 -4 15 -3 10 6 -6 10 -4 10 12 0 19 -12 19 -14 4 -25 -9
-6 -30 -16 -47 -23 -29 -11 -29 -11 -2 -6 25 5 27 3 21 -20 -3 -14 -2 -25 2
-25 24 0 104 36 104 46 0 7 6 15 13 17 6 3 3 6 -8 7 -19 1 -19 1 -1 11 14 9
20 8 27 -2 13 -21 11 -29 -8 -30 -12 0 -13 -2 -5 -6 20 -8 53 27 46 49 -3 10
-1 18 5 18 6 0 11 -21 11 -50 0 -49 0 -49 -40 -61 -34 -11 -40 -16 -40 -41 0
-15 -4 -28 -10 -28 -5 0 -10 -15 -10 -33 0 -32 1 -33 36 -29 31 4 35 2 32 -14
-2 -12 -18 -22 -48 -30 -25 -7 -39 -12 -32 -13 7 -1 32 4 56 10 39 10 42 13
38 40 -3 17 0 29 7 29 7 0 11 -28 11 -80 0 -57 -4 -80 -12 -80 -10 0 -10 -3 0
-9 23 -14 9 -45 -23 -52 -27 -6 -26 -7 10 -6 l40 0 -2 260 c-1 143 -4 261 -5
262 -2 2 -104 -34 -228 -80z m-440 -404 c0 -12 -29 -23 -41 -15 -5 3 -7 10 -4
15 8 12 45 12 45 0z"/>
<path d="M874 1347 c17 -12 17 -15 2 -30 -9 -8 -12 -18 -8 -21 5 -3 14 4 22
14 12 17 16 17 42 4 46 -24 32 -8 -18 20 -50 28 -69 34 -40 13z"/>
<path d="M990 1281 c24 -20 40 -26 40 -16 0 2 -15 12 -32 20 l-33 16 25 -20z"/>
<path d="M1040 1257 c0 -3 38 -26 85 -52 47 -27 85 -52 85 -56 0 -5 9 -9 20
-9 10 0 23 -7 28 -16 6 -10 12 -13 16 -6 3 5 -37 34 -92 65 -120 68 -142 79
-142 74z"/>
<path d="M980 1180 c0 -5 5 -10 10 -10 6 0 10 5 10 10 0 6 -4 10 -10 10 -5 0
-10 -4 -10 -10z"/>
<path d="M680 1144 l-25 -15 25 7 c28 7 35 12 29 18 -2 2 -15 -2 -29 -10z"/>
<path d="M940 1130 c0 -5 5 -10 10 -10 6 0 10 5 10 10 0 6 -4 10 -10 10 -5 0
-10 -4 -10 -10z"/>
<path d="M250 1105 c0 -8 8 -11 20 -8 11 3 20 7 20 8 0 1 -9 5 -20 8 -12 3
-20 0 -20 -8z"/>
<path d="M1294 1112 c3 -5 19 -15 36 -22 l30 -13 -1 -291 c0 -183 -5 -296 -11
-303 -6 -7 -6 -13 -1 -13 5 0 10 -25 11 -55 l2 -54 -102 -4 -103 -3 108 -2
107 -2 0 365 0 365 -41 21 c-23 11 -38 16 -35 11z"/>
<path d="M970 1099 c0 -5 5 -7 10 -4 6 3 10 8 10 11 0 2 -4 4 -10 4 -5 0 -10
-5 -10 -11z"/>
<path d="M695 1095 c-5 -1 -47 -13 -93 -25 -45 -13 -81 -25 -78 -27 2 -2 37 5
77 17 40 11 77 20 81 20 5 0 9 -71 9 -157 2 -194 5 -212 39 -202 25 7 25 7 2
8 -22 1 -24 4 -20 51 1 28 -1 50 -5 50 -4 0 -7 61 -5 135 2 74 3 135 3 134 0
0 -4 -2 -10 -4z"/>
<path d="M1000 1080 c0 -5 5 -10 10 -10 6 0 10 5 10 10 0 6 -4 10 -10 10 -5 0
-10 -4 -10 -10z"/>
<path d="M133 1058 c-23 -11 -39 -60 -16 -51 7 3 13 9 13 14 0 5 9 18 20 29
22 22 17 24 -17 8z"/>
<path d="M930 1040 c0 -5 5 -10 10 -10 6 0 10 5 10 10 0 6 -4 10 -10 10 -5 0
-10 -4 -10 -10z"/>
<path d="M465 1030 c-13 -5 -14 -9 -5 -9 8 0 24 4 35 9 13 5 14 9 5 9 -8 0
-24 -4 -35 -9z"/>
<path d="M1055 1030 c-3 -5 -1 -10 4 -10 6 0 11 5 11 10 0 6 -2 10 -4 10 -3 0
-8 -4 -11 -10z"/>
<path d="M1160 1030 c0 -5 5 -10 11 -10 5 0 7 5 4 10 -3 6 -8 10 -11 10 -2 0
-4 -4 -4 -10z"/>
<path d="M395 1010 c-13 -5 -14 -9 -5 -9 8 0 24 4 35 9 13 5 14 9 5 9 -8 0
-24 -4 -35 -9z"/>
<path d="M870 1010 c0 -5 5 -10 11 -10 5 0 7 5 4 10 -3 6 -8 10 -11 10 -2 0
-4 -4 -4 -10z"/>
<path d="M1180 999 c0 -5 5 -7 10 -4 6 3 10 8 10 11 0 2 -4 4 -10 4 -5 0 -10
-5 -10 -11z"/>
<path d="M1280 1000 c0 -5 5 -10 10 -10 6 0 10 5 10 10 0 6 -4 10 -10 10 -5 0
-10 -4 -10 -10z"/>
<path d="M935 990 c3 -5 8 -10 11 -10 2 0 4 5 4 10 0 6 -5 10 -11 10 -5 0 -7
-4 -4 -10z"/>
<path d="M1110 990 c0 -5 5 -10 10 -10 6 0 10 5 10 10 0 6 -4 10 -10 10 -5 0
-10 -4 -10 -10z"/>
<path d="M1295 970 c-3 -5 -1 -10 4 -10 6 0 11 5 11 10 0 6 -2 10 -4 10 -3 0
-8 -4 -11 -10z"/>
<path d="M1000 960 c0 -5 5 -10 11 -10 5 0 7 5 4 10 -3 6 -8 10 -11 10 -2 0
-4 -4 -4 -10z"/>
<path d="M1050 950 c0 -5 5 -10 10 -10 6 0 10 5 10 10 0 6 -4 10 -10 10 -5 0
-10 -4 -10 -10z"/>
<path d="M746 942 c-2 -4 -1 -14 4 -22 7 -11 9 -9 7 8 -1 24 -3 26 -11 14z"/>
<path d="M1090 879 c0 -5 5 -7 10 -4 6 3 10 8 10 11 0 2 -4 4 -10 4 -5 0 -10
-5 -10 -11z"/>
<path d="M1245 880 c3 -5 8 -10 11 -10 2 0 4 5 4 10 0 6 -5 10 -11 10 -5 0 -7
-4 -4 -10z"/>
<path d="M1190 850 c0 -5 5 -10 10 -10 6 0 10 5 10 10 0 6 -4 10 -10 10 -5 0
-10 -4 -10 -10z"/>
<path d="M738 833 c6 -2 18 -2 25 0 6 3 1 5 -13 5 -14 0 -19 -2 -12 -5z"/>
<path d="M851 589 c1 -134 4 -233 6 -219 3 14 10 31 15 37 7 9 7 13 -1 13 -7
0 -11 61 -11 201 1 111 -2 204 -5 207 -3 3 -4 -105 -4 -239z"/>
<path d="M1210 810 c0 -5 5 -10 11 -10 5 0 7 5 4 10 -3 6 -8 10 -11 10 -2 0
-4 -4 -4 -10z"/>
<path d="M1050 799 c0 -5 5 -7 10 -4 6 3 10 8 10 11 0 2 -4 4 -10 4 -5 0 -10
-5 -10 -11z"/>
<path d="M1245 800 c3 -5 8 -10 11 -10 2 0 4 5 4 10 0 6 -5 10 -11 10 -5 0 -7
-4 -4 -10z"/>
<path d="M78 793 c7 -3 16 -2 19 1 4 3 -2 6 -13 5 -11 0 -14 -3 -6 -6z"/>
<path d="M990 760 c0 -5 5 -10 11 -10 5 0 7 5 4 10 -3 6 -8 10 -11 10 -2 0 -4
-4 -4 -10z"/>
<path d="M814 742 c-16 -6 -19 -12 -13 -27 6 -17 8 -17 8 -2 1 9 8 17 16 17 8
0 15 5 15 10 0 6 -1 10 -2 9 -2 -1 -13 -4 -24 -7z"/>
<path d="M183 645 c0 -27 2 -38 4 -22 2 15 2 37 0 50 -2 12 -4 0 -4 -28z"/>
<path d="M702 563 c-2 -106 -4 -122 -19 -126 -17 -4 -17 -5 0 -6 13 -1 17 -10
17 -41 0 -22 3 -40 8 -40 4 0 6 51 4 112 -4 190 -8 229 -10 101z"/>
<path d="M1085 660 c-3 -5 -1 -10 4 -10 6 0 11 5 11 10 0 6 -2 10 -4 10 -3 0
-8 -4 -11 -10z"/>
<path d="M1090 600 c0 -5 5 -10 10 -10 6 0 10 5 10 10 0 6 -4 10 -10 10 -5 0
-10 -4 -10 -10z"/>
<path d="M975 570 c3 -5 8 -10 11 -10 2 0 4 5 4 10 0 6 -5 10 -11 10 -5 0 -7
-4 -4 -10z"/>
<path d="M733 563 c9 -2 25 -2 35 0 9 3 1 5 -18 5 -19 0 -27 -2 -17 -5z"/>
<path d="M88 553 c7 -3 16 -2 19 1 4 3 -2 6 -13 5 -11 0 -14 -3 -6 -6z"/>
<path d="M925 550 c-3 -5 -1 -10 4 -10 6 0 11 5 11 10 0 6 -2 10 -4 10 -3 0
-8 -4 -11 -10z"/>
<path d="M1000 549 c0 -5 5 -7 10 -4 6 3 10 8 10 11 0 2 -4 4 -10 4 -5 0 -10
-5 -10 -11z"/>
<path d="M1245 550 c-3 -5 -1 -10 4 -10 6 0 11 5 11 10 0 6 -2 10 -4 10 -3 0
-8 -4 -11 -10z"/>
<path d="M773 513 c15 -2 37 -2 50 0 12 2 0 4 -28 4 -27 0 -38 -2 -22 -4z"/>
<path d="M1330 499 c0 -5 5 -7 10 -4 6 3 10 8 10 11 0 2 -4 4 -10 4 -5 0 -10
-5 -10 -11z"/>
<path d="M1230 470 c0 -5 5 -10 11 -10 5 0 7 5 4 10 -3 6 -8 10 -11 10 -2 0
-4 -4 -4 -10z"/>
<path d="M110 450 c0 -11 4 -20 9 -20 5 0 7 9 4 20 -3 11 -7 20 -9 20 -2 0 -4
-9 -4 -20z"/>
<path d="M1165 450 c-3 -5 -1 -10 4 -10 6 0 11 5 11 10 0 6 -2 10 -4 10 -3 0
-8 -4 -11 -10z"/>
<path d="M618 423 c6 -2 18 -2 25 0 6 3 1 5 -13 5 -14 0 -19 -2 -12 -5z"/>
<path d="M498 403 c7 -3 16 -2 19 1 4 3 -2 6 -13 5 -11 0 -14 -3 -6 -6z"/>
<path d="M743 403 c34 -5 38 -40 5 -46 -13 -2 4 -5 37 -5 40 -1 55 1 45 7 -8
6 -18 7 -22 5 -4 -3 -8 2 -8 11 0 8 10 20 23 25 16 6 5 9 -43 8 -36 -1 -53 -3
-37 -5z"/>
<path d="M125 391 c-3 -5 -1 -12 5 -16 5 -3 10 1 10 9 0 18 -6 21 -15 7z"/>
<path d="M448 393 c7 -3 16 -2 19 1 4 3 -2 6 -13 5 -11 0 -14 -3 -6 -6z"/>
<path d="M1235 390 c-3 -5 -1 -10 4 -10 6 0 11 5 11 10 0 6 -2 10 -4 10 -3 0
-8 -4 -11 -10z"/>
<path d="M88 383 c7 -3 16 -2 19 1 4 3 -2 6 -13 5 -11 0 -14 -3 -6 -6z"/>
<path d="M378 383 c7 -3 16 -2 19 1 4 3 -2 6 -13 5 -11 0 -14 -3 -6 -6z"/>
<path d="M1100 379 c0 -5 5 -7 10 -4 6 3 10 8 10 11 0 2 -4 4 -10 4 -5 0 -10
-5 -10 -11z"/>
<path d="M1195 380 c3 -5 8 -10 11 -10 2 0 4 5 4 10 0 6 -5 10 -11 10 -5 0 -7
-4 -4 -10z"/>
<path d="M328 373 c7 -3 16 -2 19 1 4 3 -2 6 -13 5 -11 0 -14 -3 -6 -6z"/>
<path d="M1006 363 c-6 -14 -5 -15 5 -6 7 7 10 15 7 18 -3 3 -9 -2 -12 -12z"/>
<path d="M529 268 c7 -10 11 -25 7 -33 -3 -9 -2 -13 4 -10 15 10 12 31 -7 46
-16 13 -17 12 -4 -3z"/>
<path d="M63 255 c-3 -9 -3 -18 -1 -21 3 -3 8 4 11 16 6 23 -1 27 -10 5z"/>
<path d="M120 266 c0 -2 7 -9 15 -16 13 -11 14 -10 9 4 -5 14 -24 23 -24 12z"/>
<path d="M161 254 c0 -11 3 -14 6 -6 3 7 2 16 -1 19 -3 4 -6 -2 -5 -13z"/>
<path d="M180 260 c0 -5 9 -14 20 -20 11 -6 20 -9 20 -8 0 2 -9 11 -20 21 -11
9 -20 13 -20 7z"/>
<path d="M242 245 c0 -16 2 -22 5 -12 2 9 2 23 0 30 -3 6 -5 -1 -5 -18z"/>
<path d="M270 251 c0 -13 3 -21 7 -18 3 4 11 3 17 -2 7 -6 12 -1 13 16 1 19
-1 22 -8 12 -8 -12 -10 -12 -19 1 -8 12 -10 10 -10 -9z"/>
<path d="M362 250 c0 -14 2 -19 5 -12 2 6 2 18 0 25 -3 6 -5 1 -5 -13z"/>
<path d="M433 254 c-3 -8 -2 -19 3 -24 5 -5 9 1 9 16 0 28 -3 30 -12 8z"/>
<path d="M482 245 c0 -16 2 -22 5 -12 2 9 2 23 0 30 -3 6 -5 -1 -5 -18z"/>
<path d="M562 245 c0 -16 2 -22 5 -12 2 9 2 23 0 30 -3 6 -5 -1 -5 -18z"/>
<path d="M601 257 c-1 -12 -5 -16 -13 -11 -8 5 -7 0 2 -11 14 -16 15 -17 18
-1 2 9 1 22 -1 29 -3 7 -6 4 -6 -6z"/>
<path d="M649 253 c-13 -16 -12 -17 4 -4 16 13 21 21 13 21 -2 0 -10 -8 -17
-17z"/>
<path d="M740 243 c0 -21 3 -24 9 -14 5 8 7 20 4 28 -8 21 -13 15 -13 -14z"/>
<path d="M893 254 c-3 -8 -2 -19 3 -24 5 -5 9 1 9 16 0 28 -3 30 -12 8z"/>
<path d="M501 244 c0 -11 3 -14 6 -6 3 7 2 16 -1 19 -3 4 -6 -2 -5 -13z"/>
<path d="M1160 241 c0 -6 4 -13 10 -16 6 -3 7 1 4 9 -7 18 -14 21 -14 7z"/>
<path d="M1276 233 c-6 -14 -5 -15 5 -6 7 7 10 15 7 18 -3 3 -9 -2 -12 -12z"/>
<path d="M1300 241 c0 -6 4 -13 10 -16 6 -3 7 1 4 9 -7 18 -14 21 -14 7z"/>
<path d="M865 230 c3 -5 8 -10 11 -10 2 0 4 5 4 10 0 6 -5 10 -11 10 -5 0 -7
-4 -4 -10z"/>
</g>
</svg>
